#!OML:ASF E:\Style4\Style4.ASF
:FULLY-SPECIFIED
:DEGREES
1463
root -0.098356 17.9866 -1.60424 0.843949 -3.20766 1.22526
lowerback 3.99338 3.62455 0.0344085
upperback 0.27803 4.82594 -0.273097
thorax -1.92027 2.40668 -0.567311
lowerneck -2.28304 -6.98321 -5.35969
upperneck 9.504 -9.70502 6.53042
head 3.78885 -4.71975 2.42343
rclavicle -5.76972e-014 1.39149e-015
rhumerus 28.2768 37.3151 -49.5956
rradius 89.0764
rwrist -32.678
rhand -27.6963 31.7857
rfingers 7.12502
rthumb -1.09263 1.80879
lclavicle -5.76972e-014 1.39149e-015
lhumerus -39.5678 -44.1887 105.746
lradius 86.4267
lwrist 23.1657
lhand -12.712 26.9016
lfingers 7.12502
lthumb 13.3708 56.4526
rfemur -8.59244 3.60214 17.4407
rtibia 24.4504
rfoot -15.5636 -14.8142
rtoes -13.3695
lfemur -6.01266 -3.29309 -20.336
ltibia 22.8372
lfoot -17.934 11.8514
ltoes -14.5494
1464
root -0.0981127 17.9936 -1.59773 0.864233 -3.06864 1.28874
lowerback 3.93263 3.48606 -0.186308
upperback 0.313018 4.634 -0.159364
thorax -1.87882 2.31324 -0.313437
lowerneck -2.40547 -6.83184 -5.6756
upperneck 9.6086 -9.47787 6.47494
head 3.83906 -4.61728 2.46266
rclavicle 1.10822e-014 3.18055e-015
rhumerus 26.3752 37.0609 -51.1996
rradius 89.8644
rwrist -31.8052
rhand -28.9094 32.2279
rfingers 7.12502
rthumb -2.26419 2.26019
lclavicle 1.10822e-014 3.18055e-015
lhumerus -39.4331 -43.7309 105.598
lradius 86.5183
lwrist 23.0839
lhand -12.9868 26.5098
lfingers 7.12502
lthumb 13.1059 56.0779
rfemur -8.35834 3.47497 17.3736
rtibia 24.193
rfoot -15.5569 -14.6513
rtoes -12.2213
lfemur -5.99856 -3.44122 -20.4109
ltibia 22.7973
lfoot -17.8964 11.8057
ltoes -14.26
1465
root -0.0978971 17.9991 -1.59178 0.885381 -2.96818 1.0031
lowerback 3.89083 3.48141 0.0493159
upperback 0.361541 4.63935 -0.0944587
thorax -1.79233 2.31462 -0.372781
lowerneck -2.53595 -6.8043 -5.54651
upperneck 9.56949 -9.42563 6.33033
head 3.83277 -4.59092 2.39773
rclavicle -1.09704e-014 5.76476e-015
rhumerus 24.0464 36.3594 -53.1578
rradius 90.6413
rwrist -30.9923
rhand -29.5041 32.2055
rfingers 7.12502
rthumb -2.83859 2.24466
lclavicle -1.09704e-014 5.76476e-015
lhumerus -39.3242 -43.7787 105.483
lradius 86.544
lwrist 23.0354
lhand -13.1529 26.2548
lfingers 7.12502
lthumb 12.9458 55.8332
rfemur -8.16493 3.49974 17.7087
rtibia 23.9172
rfoot -15.4988 -14.7615
rtoes -11.928
lfemur -5.97717 -3.50862 -20.087
ltibia 22.7623
lfoot -17.8316 11.8221
ltoes -14.4392
1466
root -0.0979894 18.0004 -1.58824 0.883007 -2.83949 0.590159
lowerback 3.93232 3.49766 0.448084
upperback 0.404462 4.6792 -0.0381214
thorax -1.74408 2.33204 -0.538605
lowerneck -2.70064 -6.82631 -5.36126
upperneck 9.56466 -9.44772 6.21774
head 3.84597 -4.59696 2.3277
rclavicle 8.57259e-015 -5.76476e-015
rhumerus 21.6528 35.5017 -55.1423
rradius 91.4069
rwrist -30.3326
rhand -29.5544 31.6585
rfingers 7.12502
rthumb -2.88713 1.69834
lclavicle 8.57259e-015 -5.76476e-015
lhumerus -39.3761 -43.9345 105.416
lradius 86.6643
lwrist 23.0063
lhand -13.3513 26.14
lfingers 7.12502
lthumb 12.7546 55.7304
rfemur -8.02645 3.55093 18.1865
rtibia 23.6703
rfoot -15.297 -15.0929
rtoes -12.9975
lfemur -5.93102 -3.52305 -19.6176
ltibia 22.6952
lfoot -17.6844 11.7999
ltoes -14.8571
